<svg width="80" height="56" viewBox="0 0 80 56" fill="none" xmlns="http://www.w3.org/2000/svg">
<g clip-path="url(#clip0_2_46)">
<path d="M79.5 28C79.5 35.524 75.1439 42.3869 67.9975 47.3894C60.8528 52.3907 50.9557 55.5 40 55.5C29.0443 55.5 19.1472 52.3907 12.0025 47.3894C4.8561 42.3869 0.5 35.524 0.5 28C0.5 20.476 4.8561 13.6131 12.0025 8.61063C19.1472 3.60928 29.0443 0.5 40 0.5C50.9557 0.5 60.8528 3.60928 67.9975 8.61063C75.1439 13.6131 79.5 20.476 79.5 28Z" stroke="#2D3277"/>
<path d="M77.5 26C77.5 32.9665 73.3734 39.3293 66.5877 43.9721C59.8045 48.6133 50.4058 51.5 40 51.5C29.5942 51.5 20.1955 48.6133 13.4123 43.9721C6.62664 39.3293 2.5 32.9665 2.5 26C2.5 19.0335 6.62664 12.6707 13.4123 8.02788C20.1955 3.38671 29.5942 0.5 40 0.5C50.4058 0.5 59.8045 3.38671 66.5877 8.02788C73.3734 12.6707 77.5 19.0335 77.5 26Z" fill="#FFE600" stroke="#2D3277"/>
<mask id="path-3-inside-1_2_46" fill="white">
<path d="M40 52C10 51 -5 30.5 6.5 14C-6.5 26 1.97041 55.5 40 55.5C70.5 55.5 90.5 31 73.5 14C86 31 67.5 51.5 40 52Z"/>
</mask>
<path d="M6.5 14L41.7771 38.5871L-22.6661 -17.5965L6.5 14ZM40 52L38.5675 94.9761L39.6744 95.013L40.7817 94.9929L40 52ZM73.5 14L103.906 -16.4056L38.857 39.4728L73.5 14ZM-28.7771 -10.5871C-46.3429 14.616 -42.9458 45.1121 -25.4155 66.2569C-9.49798 85.4563 14.8097 94.1842 38.5675 94.9761L41.4325 9.02387C35.1903 8.81579 36.998 6.79369 40.7905 11.3681C42.8359 13.8353 45.2243 18.1941 45.5855 24.1589C45.9588 30.3256 43.9863 35.4174 41.7771 38.5871L-28.7771 -10.5871ZM40.7817 94.9929C64.2248 94.5667 87.9912 85.6398 103.889 67.7551C112.027 58.5998 118.801 46.1267 120.217 31.0647C121.685 15.4625 117.036 0.622201 108.143 -11.4728L38.857 39.4728C36.2136 35.8778 33.9405 29.975 34.5951 23.0134C35.1989 16.5921 37.9733 12.4627 39.6114 10.6199C42.5088 7.36024 43.2752 8.93334 39.2183 9.00711L40.7817 94.9929ZM43.0944 44.4056C40.3226 41.6338 36.7937 35.8885 36.7281 28.0146C36.6678 20.7884 39.5515 16.0303 41.1587 14.0476C43.983 10.5635 44.5866 12.5 40 12.5V98.5C65.9134 98.5 91.7671 88.1865 107.966 68.2024C116.261 57.9697 122.863 43.8991 122.725 27.2979C122.581 10.049 115.177 -5.13383 103.906 -16.4056L43.0944 44.4056ZM40 12.5C32.2405 12.5 36.8208 10.0786 41.1301 17.3685C44.3724 22.8533 46.546 35.5535 35.666 45.5965L-22.6661 -17.5965C-46.546 4.44646 -46.6372 37.8967 -32.9023 61.1315C-18.1004 86.1714 9.72988 98.5 40 98.5V12.5Z" fill="#2D3277" mask="url(#path-3-inside-1_2_46)"/>
<mask id="mask0_2_46" style="mask-type:alpha" maskUnits="userSpaceOnUse" x="2" y="1" width="76" height="51">
<path d="M77.5 26.5C77.5 33.324 73.3783 39.5617 66.5914 44.116C59.8078 48.6682 50.4078 51.5 40 51.5C29.5922 51.5 20.1922 48.6682 13.4086 44.116C6.62173 39.5617 2.5 33.324 2.5 26.5C2.5 19.676 6.62173 13.4383 13.4086 8.88396C20.1922 4.33179 29.5922 1.5 40 1.5C50.4078 1.5 59.8078 4.33179 66.5914 8.88396C73.3783 13.4383 77.5 19.676 77.5 26.5Z" fill="#FFE600" stroke="#2D3277"/>
</mask>
<g mask="url(#mask0_2_46)">
<mask id="path-6-inside-2_2_46" fill="white">
<path d="M17.5 32L18.5 24.5L18 21.5L19 18L21.5 15L24.5 14L29 14.5L31 16.5L39 17.5L48.5 17L51 14.5H56L60.5 16L62 20L62.5 26L63 36.5L61.5 41L58 42.5L55 41.5L53 38L51 34L48 35L43.5 34L42.5 31.5H38.5L37 33.5L33.5 35L30 33.5L28 37.5L26 41.5L21.5 42.5L18.5 41L17 37L17.5 32Z"/>
</mask>
<path d="M18.5 24.5L91.8509 34.2801L93.3175 23.2805L91.4932 12.3345L18.5 24.5ZM17.5 32L-55.8509 22.2199L-56.0117 23.426L-56.1328 24.6367L17.5 32ZM17 37L-56.6328 29.6367L-58.3508 46.8167L-52.2884 62.9831L17 37ZM18.5 41L-50.7884 66.9831L-40.585 94.192L-14.5938 107.188L18.5 41ZM21.5 42.5L-11.5938 108.688L11.9055 120.437L37.5529 114.738L21.5 42.5ZM26 41.5L42.0529 113.738L76.4359 106.097L92.1876 74.5938L26 41.5ZM30 33.5L59.15 -34.5167L-4.98329 -62.0024L-36.1876 0.406194L30 33.5ZM33.5 35L4.34997 103.017L33.5 115.51L62.65 103.017L33.5 35ZM37 33.5L66.15 101.517L84.3315 93.7247L96.2 77.9L37 33.5ZM38.5 31.5V-42.5H1.5L-20.7 -12.9L38.5 31.5ZM42.5 31.5L111.207 4.01709L92.6004 -42.5H42.5V31.5ZM43.5 34L-25.2073 61.4829L-10.6958 97.7616L27.4471 106.238L43.5 34ZM48 35L31.9471 107.238L51.9559 111.684L71.4009 105.203L48 35ZM51 34L117.188 0.906194L88.4855 -56.498L27.5991 -36.2026L51 34ZM53 38L-13.1876 71.0938L-12.269 72.9309L-11.25 74.7143L53 38ZM55 41.5L-9.24999 78.2143L4.77723 102.762L31.5991 111.703L55 41.5ZM58 42.5L34.5991 112.703L61.2901 121.6L87.15 110.517L58 42.5ZM61.5 41L90.65 109.017L121.194 95.9264L131.703 64.4009L61.5 41ZM63 36.5L133.203 59.9009L137.574 46.7874L136.916 32.9802L63 36.5ZM62.5 26L136.416 22.4802L136.354 21.1659L136.244 19.8546L62.5 26ZM62 20L135.744 13.8546L134.892 3.62674L131.288 -5.98313L62 20ZM60.5 16L129.788 -9.98313L117.393 -43.0387L83.9009 -54.2026L60.5 16ZM56 14.5L79.4009 -55.7026L68.0085 -59.5H56V14.5ZM51 14.5V-59.5H20.3482L-1.3259 -37.8259L51 14.5ZM48.5 17L52.3894 90.8977L80.7466 89.4052L100.826 69.3259L48.5 17ZM39 17.5L29.8214 90.9286L36.3346 91.7427L42.8894 91.3977L39 17.5ZM31 16.5L-21.3259 68.8259L-3.37248 86.7793L21.8214 89.9286L31 16.5ZM29 14.5L81.3259 -37.8259L62.971 -56.1808L37.1719 -59.0474L29 14.5ZM24.5 14L32.6719 -59.5474L16.5182 -61.3423L1.09915 -56.2026L24.5 14ZM21.5 15L-1.90085 -55.2026L-21.8717 -48.5456L-35.3484 -32.3736L21.5 15ZM19 18L-37.8484 -29.3736L-47.8576 -17.3626L-52.1528 -2.32936L19 18ZM18 21.5L-53.1528 1.17064L-57.7356 17.2106L-54.9932 33.6655L18 21.5ZM-54.8509 14.7199L-55.8509 22.2199L90.8509 41.7801L91.8509 34.2801L-54.8509 14.7199ZM-56.1328 24.6367L-56.6328 29.6367L90.6328 44.3633L91.1328 39.3633L-56.1328 24.6367ZM-52.2884 62.9831L-50.7884 66.9831L87.7884 15.0169L86.2884 11.0169L-52.2884 62.9831ZM-14.5938 107.188L-11.5938 108.688L54.5938 -23.6876L51.5938 -25.1876L-14.5938 107.188ZM37.5529 114.738L42.0529 113.738L9.94715 -30.7378L5.44715 -29.7378L37.5529 114.738ZM92.1876 74.5938L94.1876 70.5938L-38.1876 4.40619L-40.1876 8.40619L92.1876 74.5938ZM94.1876 70.5938L96.1876 66.5938L-36.1876 0.406194L-38.1876 4.40619L94.1876 70.5938ZM0.849972 101.517L4.34997 103.017L62.65 -33.0167L59.15 -34.5167L0.849972 101.517ZM62.65 103.017L66.15 101.517L7.84997 -34.5167L4.34997 -33.0167L62.65 103.017ZM96.2 77.9L97.7 75.9L-20.7 -12.9L-22.2 -10.9L96.2 77.9ZM38.5 105.5H42.5V-42.5H38.5V105.5ZM-26.2073 58.9829L-25.2073 61.4829L112.207 6.51709L111.207 4.01709L-26.2073 58.9829ZM27.4471 106.238L31.9471 107.238L64.0529 -37.2378L59.5529 -38.2378L27.4471 106.238ZM71.4009 105.203L74.4009 104.203L27.5991 -36.2026L24.5991 -35.2026L71.4009 105.203ZM-15.1876 67.0938L-13.1876 71.0938L119.188 4.90619L117.188 0.906194L-15.1876 67.0938ZM-11.25 74.7143L-9.24999 78.2143L119.25 4.78572L117.25 1.28572L-11.25 74.7143ZM31.5991 111.703L34.5991 112.703L81.4009 -27.7026L78.4009 -28.7026L31.5991 111.703ZM87.15 110.517L90.65 109.017L32.35 -27.0167L28.85 -25.5167L87.15 110.517ZM131.703 64.4009L133.203 59.9009L-7.20256 13.0991L-8.70256 17.5991L131.703 64.4009ZM136.916 32.9802L136.416 22.4802L-11.4162 29.5198L-10.9162 40.0198L136.916 32.9802ZM136.244 19.8546L135.744 13.8546L-11.7444 26.1454L-11.2444 32.1454L136.244 19.8546ZM131.288 -5.98313L129.788 -9.98313L-8.78836 41.9831L-7.28836 45.9831L131.288 -5.98313ZM83.9009 -54.2026L79.4009 -55.7026L32.5991 84.7026L37.0991 86.2026L83.9009 -54.2026ZM56 -59.5H51V88.5H56V-59.5ZM-1.3259 -37.8259L-3.8259 -35.3259L100.826 69.3259L103.326 66.8259L-1.3259 -37.8259ZM44.6106 -56.8977L35.1106 -56.3977L42.8894 91.3977L52.3894 90.8977L44.6106 -56.8977ZM48.1786 -55.9286L40.1786 -56.9286L21.8214 89.9286L29.8214 90.9286L48.1786 -55.9286ZM83.3259 -35.8259L81.3259 -37.8259L-23.3259 66.8259L-21.3259 68.8259L83.3259 -35.8259ZM37.1719 -59.0474L32.6719 -59.5474L16.3281 87.5474L20.8281 88.0474L37.1719 -59.0474ZM1.09915 -56.2026L-1.90085 -55.2026L44.9009 85.2026L47.9009 84.2026L1.09915 -56.2026ZM-35.3484 -32.3736L-37.8484 -29.3736L75.8484 65.3736L78.3484 62.3736L-35.3484 -32.3736ZM-52.1528 -2.32936L-53.1528 1.17064L89.1528 41.8294L90.1528 38.3294L-52.1528 -2.32936ZM-54.9932 33.6655L-54.4932 36.6655L91.4932 12.3345L90.9932 9.33447L-54.9932 33.6655Z" fill="white" mask="url(#path-6-inside-2_2_46)"/>
</g>
<g clip-path="url(#clip1_2_46)">
<path d="M63.325 20.556C63.32 20.447 63.296 20.3421 63.256 20.2421C62.4981 16.3221 58.644 13.499 54 13.499C51.8499 13.499 50.0459 14.48 48.4941 16.499H40.0434C40.1918 14.8848 40.7064 14.1184 41.2891 13.257C42.091 12.072 42.9992 10.729 42.9992 7.5C42.9992 6.94704 42.5522 6.5 41.9992 6.5C41.4462 6.5 40.9992 6.94704 40.9992 7.5C40.9992 10.117 40.3662 11.053 39.6331 12.137C38.96 13.1326 38.2083 14.2437 38.0358 16.499H32.4941C30.791 14.431 28.06 13.499 26 13.499C21.6821 13.499 18.299 16.453 17.5699 20.9021C17.409 22.392 16 35.475 16 36.499C16 39.736 18.621 43.499 22 43.499C24.2859 43.499 26.9979 42.4 27.969 39.952C27.981 39.927 27.992 39.901 28.0029 39.876L30.073 34.812C30.972 35.5379 32.116 36.137 33.435 36.137C35.9541 36.137 38.199 34.645 39.064 32.4979H41.816C42.6541 34.444 44.807 35.7029 47.435 35.7029C48.5291 35.7029 49.724 35.609 50.764 35.0469L52.877 39.8989C52.884 39.9189 52.893 39.9368 52.904 39.9558C53.8099 42.3088 55.5219 43.4998 57.999 43.4998C61.3781 43.4998 63.999 39.7368 64 36.4978C64 35.487 63.353 21.1659 63.325 20.556ZM57.999 41.5C56.343 41.5 55.3371 40.775 54.739 39.1541C54.72 39.1021 54.695 39.051 54.668 39.003L52.0861 33.075C51.9491 32.76 51.6621 32.54 51.324 32.4861C50.984 32.435 50.645 32.555 50.42 32.811C49.8499 33.456 49.0141 33.707 47.4379 33.707C45.3949 33.707 43.856 32.753 43.513 31.276C43.4059 30.823 43.004 30.5021 42.5379 30.5021H38.336C37.871 30.5021 37.465 30.823 37.361 31.276C36.9819 32.909 35.2939 34.139 33.4349 34.139C32.1678 34.139 31.0229 33.056 30.4539 32.4101C30.225 32.1501 29.8739 32.0322 29.537 32.0861C29.1949 32.1421 28.909 32.3741 28.777 32.6931L26.189 39.0272C26.1659 39.0662 26.148 39.1093 26.1309 39.1522C25.5318 40.7731 23.625 41.5002 21.9989 41.5002C19.8448 41.5002 17.9989 38.7512 17.9989 36.5002C17.9998 35.8011 18.9558 26.6952 19.5509 21.1742C20.1139 17.7272 22.645 15.5002 25.9989 15.5002C27.6219 15.5002 29.9368 16.3042 31.181 18.0742C31.368 18.3422 31.6739 18.5002 31.9989 18.5002H48.9989C49.3238 18.5002 49.629 18.3422 49.817 18.0742C51.069 16.2942 52.3579 15.5002 53.9989 15.5002C57.2069 15.5002 60.7509 17.3102 61.317 20.7742C61.3229 20.8002 61.329 20.8293 61.336 20.8542C61.5701 26.0542 61.999 35.7362 61.999 36.5002C61.999 38.751 60.153 41.5 57.999 41.5Z" fill="#2D3277"/>
<path d="M27.999 24.5H25.999V22.5C25.999 21.947 25.552 21.5 24.999 21.5C24.4461 21.5 23.999 21.947 23.999 22.5V24.5H21.999C21.4461 24.5 20.999 24.947 20.999 25.5C20.999 26.053 21.4461 26.5 21.999 26.5H23.999V28.5C23.999 29.053 24.4461 29.5 24.999 29.5C25.552 29.5 25.999 29.053 25.999 28.5V26.5H27.999C28.552 26.5 28.999 26.053 28.999 25.5C28.999 24.947 28.552 24.5 27.999 24.5Z" fill="#2D3277"/>
<path d="M37.999 24.5H35.999C35.4461 24.5 34.999 24.947 34.999 25.5C34.999 26.053 35.4461 26.5 35.999 26.5H37.999C38.552 26.5 38.999 26.053 38.999 25.5C38.999 24.947 38.552 24.5 37.999 24.5Z" fill="#2D3277"/>
<path d="M43.999 24.5H41.999C41.4461 24.5 40.999 24.947 40.999 25.5C40.999 26.053 41.4461 26.5 41.999 26.5H43.999C44.552 26.5 44.999 26.053 44.999 25.5C44.999 24.947 44.552 24.5 43.999 24.5Z" fill="#2D3277"/>
<path d="M49.579 21.08C49.209 21.46 48.999 21.9701 48.999 22.5C48.999 23.029 49.2091 23.54 49.579 23.9101C49.959 24.2901 50.4691 24.5002 50.999 24.5002C51.519 24.5002 52.039 24.2901 52.4091 23.9101C52.7891 23.54 52.9992 23.02 52.9992 22.5C52.9992 21.9779 52.7891 21.46 52.4091 21.08C51.659 20.34 50.329 20.34 49.579 21.08Z" fill="#2D3277"/>
<path d="M55.589 19.08C55.209 19.46 54.9989 19.9701 54.9989 20.5C54.9989 21.0179 55.209 21.54 55.589 21.9101C55.959 22.2901 56.469 22.5002 56.999 22.5002C57.528 22.5002 58.039 22.2901 58.4091 21.9101C58.7891 21.54 58.9992 21.02 58.9992 20.5C58.9992 19.9699 58.7891 19.46 58.4091 19.08C57.669 18.34 56.329 18.34 55.589 19.08Z" fill="#2D3277"/>
<path d="M49.579 27.0901C49.209 27.4602 48.999 27.9701 48.999 28.5002C48.999 29.0291 49.2091 29.5402 49.579 29.9102C49.959 30.2902 50.4691 30.5003 50.999 30.5003C51.519 30.5003 52.039 30.2902 52.4091 29.9102C52.7891 29.5402 52.9992 29.0293 52.9992 28.5002C52.9992 27.9811 52.7891 27.4602 52.4091 27.0901C51.659 26.34 50.329 26.34 49.579 27.0901Z" fill="#2D3277"/>
<path d="M55.589 25.08C55.209 25.46 54.9989 25.9701 54.9989 26.5C54.9989 27.0179 55.209 27.54 55.589 27.9101C55.959 28.2901 56.469 28.5002 56.999 28.5002C57.528 28.5002 58.039 28.2901 58.4091 27.9101C58.7891 27.54 58.9992 27.02 58.9992 26.5C58.9992 25.9699 58.7891 25.46 58.4091 25.08C57.669 24.34 56.329 24.34 55.589 25.08Z" fill="#2D3277"/>
<path d="M39 16.5C39 15 39.3333 14 41 11.5C42.6667 9 41.5 4 42.5 1C43.5 -2 40 -8 41 -12" stroke="#2D3277" stroke-width="2"/>
</g>
</g>
<defs>
<clipPath id="clip0_2_46">
<rect width="80" height="56" fill="white"/>
</clipPath>
<clipPath id="clip1_2_46">
<rect width="48" height="48" fill="white" transform="translate(16 1)"/>
</clipPath>
</defs>
</svg>
